<svg width="99" height="20" xmlns="http://www.w3.org/2000/svg"><g fill="#2571A9" fill-rule="evenodd"><path d="M98.67 9.034l-5.065 7.607a6.862 6.862 0 01-2.657 2.39c-1.756.914-3.701.902-3.701.902l1.188-1.916s.813-.197 1.838-.917c1.104-.776 1.19-1.422 1.19-1.422l-.809-.408.031-6.26s1.885.139 2.05 1.572l.327 2.87 3.292-3.918c.646-.768 2.315-.5 2.315-.5m-12.263 5.071l.282-.796s-1-.083-1.913.526c-.915.61-.444 1.497.692 1.247.581-.127.77-.553.939-.977zm1.112-5.093c2.896.094 2.409 1.471 2.409 1.471l-2.34 6.337h-2.009l.056-.714s-.97.714-2.549.714c-1.578 0-2.077-.825-1.578-2.209 1.09-3.033 5.625-2.556 5.625-2.556.073-.248.108-.427.13-.56.023-.133.03-.221.032-.291a.445.445 0 00-.023-.172.363.363 0 00-.096-.138.772.772 0 00-.184-.13 1.287 1.287 0 00-.25-.096 1.88 1.88 0 00-.471-.065 3.593 3.593 0 00-.412.014 9.727 9.727 0 00-.799.102c-.323.054-.693.13-1.088.235L83.89 9.68s.997-.668 3.629-.668zm-8.626 3.664c.985-2.886-1.303-1.758-1.303-1.758l-1.301 3.8s1.716.55 2.604-2.042zm.281-3.659c2.076 0 3.18 1.166 2.393 3.449-1.666 4.827-5.88 4.374-5.88 4.374l-.667 1.852c-.472 1.308-3.272 1.23-3.272 1.23L75.549 9.58s1.548-.562 3.624-.562zm-6.198.003c1.04 0 1.378.498 1.012 1.494l-2.097 5.703a.892.892 0 01-.837.584h-1.876l1.906-5.184a.446.446 0 00-.42-.6h-.082c-.561 0-1.062.35-1.256.876l-1.589 4.324a.893.893 0 01-.838.584h-1.876l1.906-5.184a.446.446 0 00-.418-.6h-.149c-.56 0-1.062.35-1.256.876l-1.589 4.324a.893.893 0 01-.837.584h-1.876l2.86-7.782h2.499l.008.004-.257.697a4.888 4.888 0 012.69-.7c.82 0 1.253.233 1.298.7a6.19 6.19 0 013.074-.7m-12.138 0c1.04 0 1.377.498 1.011 1.494l-2.096 5.703a.892.892 0 01-.837.584h-1.876l1.905-5.184a.445.445 0 00-.419-.6h-.082c-.561 0-1.063.35-1.256.876l-1.59 4.324a.892.892 0 01-.837.584h-1.876l1.906-5.184a.446.446 0 00-.419-.6h-.148c-.56 0-1.062.35-1.256.876l-1.59 4.324a.892.892 0 01-.836.584h-1.876l2.86-7.782h2.498l.009.004-.257.697a4.884 4.884 0 012.688-.7c.822 0 1.255.233 1.3.7a6.19 6.19 0 013.074-.7m-15.289 5.627c.714-.836 1.328-2.507 1.228-3.342-.1-.836-.914-.836-1.629 0-.714.835-1.328 2.506-1.228 3.342.1.835.914.835 1.629 0zm1.45-5.64c1.8 0 3.04 1.372 2.063 3.863-.976 2.491-2.663 3.935-5.138 3.935-2.474 0-3.077-1.226-1.987-4.19 1.086-2.958 3.263-3.609 5.061-3.609zm-4.214.575l-1.206 1.287s-.916-.632-1.818.003c-.455.318-.846 1.142-1.238 2.166-1.15 3.015 1.81 1.526 1.81 1.526l.371 1.607s-1.215.643-3.064.643c-1.848 0-2.41-1.366-1.484-4.218.89-2.757 3.05-3.577 4.66-3.577 1.606 0 1.969.563 1.969.563m-9.349 2.454s.474-1.459-.547-1.459c-1.02 0-1.423 1.46-1.423 1.46h1.97zm.255-3.028c2.261 0 2.043 1.861 1.898 2.626-.147.766-.512 1.753-.512 1.753h-4.231s-.473 1.531.584 1.786c1.059.256 2.408-.584 2.408-.584l.145 1.496s-.801.73-2.918.73c-2.115 0-2.955-1.278-2.044-3.94.914-2.663 2.409-3.867 4.67-3.867zM24.373 7.83c.45.313.562.933.248 1.384l-6.25 8.99a3.181 3.181 0 01-2.612 1.365H0l7.356-10.58 1.698 2.438-3.724 5.356h9.946a.4.4 0 00.327-.17l6.23-8.961h1.973c.202 0 .4.062.567.178"/><path d="M24.022.4c.027.06.016.14 0 .217-.068.3-.233.53-.398.76-.438.617-.87 1.25-1.3 1.884l-7.619 11.01a.914.914 0 01-1.515-.016c-2.435-3.684-2.933-4.438-3.294-4.978-.36-.54-.583-.867-.626-1.135-.042-.269.097-.478.351-.643.255-.166.625-.289 4.114 1.143 2.217-2.018 4.435-4.035 6.569-6.178.59-.592 1.174-1.194 1.87-1.65.236-.154.485-.291.74-.409.248-.114.502-.21.806-.163.126.02.26.064.302.158"/></g></svg>