<svg width="50" height="15" fill="none" xmlns="http://www.w3.org/2000/svg"><path fill-rule="evenodd" clip-rule="evenodd" d="M19.802.14h3.984l-2.492 14.53h-3.982L19.802.14zM35.76.61C34.973.316 33.736 0 32.19 0c-3.935 0-6.708 1.971-6.731 4.796-.023 2.088 1.979 3.253 3.49 3.948 1.55.712 2.072 1.166 2.064 1.802-.01.974-1.238 1.42-2.383 1.42-1.594 0-2.441-.22-3.75-.763l-.513-.231-.559 3.253c.93.405 2.651.757 4.437.775 4.188 0 6.906-1.948 6.937-4.965.015-1.653-1.047-2.91-3.345-3.948-1.392-.672-2.245-1.12-2.236-1.802 0-.604.722-1.25 2.282-1.25a7.385 7.385 0 012.981.557l.357.168.54-3.15zM45.976.266h-3.078c-.953 0-1.667.26-2.085 1.206l-5.916 13.317h4.183s.684-1.79.838-2.184l5.102.006c.119.51.484 2.178.484 2.178H49.2L45.975.266zm-4.911 9.367c.329-.837 1.587-4.062 1.587-4.062-.024.038.327-.842.528-1.387l.269 1.253.922 4.196h-3.306zM13.992.264l-3.9 9.91-.415-2.015C8.951 5.838 6.689 3.323 4.16 2.064l3.566 12.708 4.215-.004L18.21.264h-4.219z" fill="#1A1F71"/><path fill-rule="evenodd" clip-rule="evenodd" d="M6.474.255H.051L0 .557C4.997 1.76 8.304 4.667 9.676 8.16L8.28 1.482C8.039.562 7.34.287 6.474.255z" fill="#1A1F71"/></svg>